<svg width="63" height="63" viewBox="0 0 63 63" fill="none" xmlns="http://www.w3.org/2000/svg">
<path d="M15.5 3H47.5V0H15.5V3ZM60 15.5V47.5H63V15.5H60ZM47.5 60H15.5V63H47.5V60ZM3 47.5V15.5H0V47.5H3ZM15.5 60C8.59644 60 3 54.4036 3 47.5H0C0 56.0604 6.93959 63 15.5 63V60ZM60 47.5C60 54.4036 54.4036 60 47.5 60V63C56.0604 63 63 56.0604 63 47.5H60ZM47.5 3C54.4036 3 60 8.59644 60 15.5H63C63 6.93959 56.0604 0 47.5 0V3ZM15.5 0C6.93959 0 0 6.93959 0 15.5H3C3 8.59644 8.59644 3 15.5 3V0ZM30.5 16.5V46.5H33.5V16.5H30.5ZM46.5 31.5H16.5V34.5H46.5V31.5Z" fill="black"/>
</svg>
