<svg width="80" height="80" viewBox="0 0 80 80" fill="none" xmlns="http://www.w3.org/2000/svg">
<g opacity="0.8" clip-path="url(#clip0_3_4)">
<mask id="mask0_3_4" style="mask-type:alpha" maskUnits="userSpaceOnUse" x="0" y="0" width="80" height="80">
<path fill-rule="evenodd" clip-rule="evenodd" d="M80 40C80 48.9844 77.0379 57.2771 72.0371 63.9545L74.9954 74.9954L63.9545 72.0371C57.277 77.0379 48.9844 80 40 80C17.9086 80 0 62.0914 0 40C0 17.9086 17.9086 0 40 0C62.0914 0 80 17.9086 80 40Z" fill="white"/>
</mask>
<g mask="url(#mask0_3_4)">
<path d="M70.8365 63.0553L70.3996 63.6387L70.5882 64.3427L72.8741 72.8741L64.3427 70.5882L63.6387 70.3996L63.0553 70.8364C56.6284 75.6497 48.6493 78.5 40 78.5C18.7371 78.5 1.5 61.2629 1.5 40C1.5 18.7371 18.7371 1.5 40 1.5C61.2629 1.5 78.5 18.7371 78.5 40C78.5 48.6493 75.6497 56.6285 70.8365 63.0553Z" fill="white" stroke="black" stroke-width="3"/>
<path d="M72.0371 63.9545L70.66 62.9232L70.1589 63.5923L70.3752 64.3998L72.0371 63.9545ZM74.9954 74.9954L74.5502 76.6573L77.4286 77.4286L76.6573 74.5502L74.9954 74.9954ZM63.9545 72.0371L64.3998 70.3752L63.5923 70.1589L62.9232 70.66L63.9545 72.0371ZM73.4141 64.9858C78.6302 58.021 81.7204 49.3689 81.7204 40H78.2796C78.2796 48.6 75.4456 56.5332 70.66 62.9232L73.4141 64.9858ZM76.6573 74.5502L73.6988 63.5092L70.3752 64.3998L73.3337 75.4408L76.6573 74.5502ZM63.5092 73.6988L74.5502 76.6573L75.4408 73.3337L64.3998 70.3752L63.5092 73.6988ZM40 81.7204C49.3689 81.7204 58.0209 78.6302 64.9858 73.4141L62.9232 70.66C56.5331 75.4456 48.6 78.2796 40 78.2796V81.7204ZM-1.72043 40C-1.72043 63.0415 16.9585 81.7204 40 81.7204V78.2796C18.8588 78.2796 1.72043 61.1412 1.72043 40H-1.72043ZM40 -1.72043C16.9585 -1.72043 -1.72043 16.9585 -1.72043 40H1.72043C1.72043 18.8588 18.8588 1.72043 40 1.72043V-1.72043ZM81.7204 40C81.7204 16.9585 63.0415 -1.72043 40 -1.72043V1.72043C61.1412 1.72043 78.2796 18.8588 78.2796 40H81.7204Z" fill="black"/>
</g>
</g>
<defs>
<clipPath id="clip0_3_4">
<rect width="80" height="80" fill="white"/>
</clipPath>
</defs>
</svg>
