<svg width="65" height="65" viewBox="0 0 65 65" fill="none" xmlns="http://www.w3.org/2000/svg">
<g clip-path="url(#clip0_8_330)">
<path d="M32.5 64.0346C49.9161 64.0346 64.0346 49.9161 64.0346 32.5C64.0346 15.0839 49.9161 0.965332 32.5 0.965332C15.0839 0.965332 0.965332 15.0839 0.965332 32.5C0.965332 49.9161 15.0839 64.0346 32.5 64.0346Z" fill="white" stroke="black" stroke-width="3"/>
<path fill-rule="evenodd" clip-rule="evenodd" d="M36.5244 36.7881L55.3617 12.7121L28.6402 28.6184L28.6118 28.5889L28.5438 28.6758L28.4472 28.7333L28.4757 28.7628L9.63849 52.8388L36.3599 36.9325L36.3884 36.962L36.4563 36.8751L36.5529 36.8176L36.5244 36.7881Z" fill="#0C0C0C"/>
<path fill-rule="evenodd" clip-rule="evenodd" d="M34.6098 34.6271L39.6361 26.369L30.7037 30.6897L30.6578 30.6434L30.5986 30.7406L30.4935 30.7914L30.5395 30.8377L25.5132 39.0958L34.4457 34.7751L34.4916 34.8214L34.5507 34.7242L34.6558 34.6734L34.6098 34.6271Z" fill="white"/>
</g>
<defs>
<clipPath id="clip0_8_330">
<rect width="65" height="65" fill="white"/>
</clipPath>
</defs>
</svg>
