<svg width="58" height="58" viewBox="0 0 58 58" fill="none" xmlns="http://www.w3.org/2000/svg">
<path d="M28.8232 2.41248C43.6047 2.41248 55.5875 14.3953 55.5875 29.1768C55.5875 43.9584 43.6047 55.9412 28.8232 55.9412C14.0416 55.9412 2.05878 43.9584 2.05878 29.1768C2.05878 14.3953 14.0416 2.41248 28.8232 2.41248Z" fill="white"/>
<path d="M28.8232 56C14.0091 56 2 43.9909 2 29.1768C2 14.3628 14.0091 2.35367 28.8232 2.35367C43.6372 2.35367 55.6463 14.3628 55.6463 29.1768C55.6463 43.9909 43.6372 56 28.8232 56ZM2.1176 29.1768C2.1176 43.926 14.074 55.8824 28.8232 55.8824C43.5723 55.8824 55.5288 43.926 55.5288 29.1768C55.5288 14.4277 43.5723 2.47126 28.8232 2.47126C14.074 2.47126 2.1176 14.4277 2.1176 29.1768Z" fill="black" stroke="black" stroke-width="4"/>
<path fill-rule="evenodd" clip-rule="evenodd" d="M25.9559 25.2654L46.406 10.5835L32.4103 32.03L32.4336 32.0545L32.3598 32.1075L32.3093 32.185L32.2859 32.1605L11.8359 46.8423L25.8315 25.3958L25.8083 25.3713L25.882 25.3185L25.9327 25.2409L25.9559 25.2654Z" fill="#0C0C0C"/>
<path fill-rule="evenodd" clip-rule="evenodd" d="M27.622 27.0725L34.4228 22.9332L30.8645 30.2892L30.9027 30.327L30.8227 30.3758L30.7808 30.4623L30.7427 30.4244L23.942 34.5636L27.5002 27.2076L27.462 27.1698L27.542 27.1211L27.5839 27.0346L27.622 27.0725Z" fill="white"/>
</svg>
