<svg width="72" height="73" viewBox="0 0 72 73" fill="none" xmlns="http://www.w3.org/2000/svg">
<mask id="mask0_8_288" style="mask-type:alpha" maskUnits="userSpaceOnUse" x="0" y="0" width="72" height="73">
<path fill-rule="evenodd" clip-rule="evenodd" d="M71.7613 28.0952L35.8807 0.296295L0 28.0952H0.257251V72.5736H28.9914V46.2793C28.9914 42.3224 32.1869 39.1146 36.1286 39.1146C40.0704 39.1146 43.2658 42.3224 43.2658 46.2793V72.5736H72V28.0952H71.7613Z" fill="white"/>
</mask>
<g mask="url(#mask0_8_288)">
<path fill-rule="evenodd" clip-rule="evenodd" d="M71.7613 28.0952L35.8807 0.296295L0 28.0952H0.257251V72.5736H28.9914V46.2793C28.9914 42.3224 32.1869 39.1146 36.1286 39.1146C40.0704 39.1146 43.2658 42.3224 43.2658 46.2793V72.5736H72V28.0952H71.7613Z" fill="white"/>
<mask id="mask1_8_288" style="mask-type:alpha" maskUnits="userSpaceOnUse" x="-7" y="-3" width="82" height="78">
<path d="M35.8807 0.296314L37.2004 -1.42023L35.8807 -2.44269L34.561 -1.42023L35.8807 0.296314ZM71.7613 28.0953L70.4417 29.8118L71.0248 30.2636H71.7614L71.7613 28.0953ZM3.00407e-05 28.0953L-1.3197 26.3787L-6.33405 30.2636H5.34058e-05L3.00407e-05 28.0953ZM0.257282 28.0953H2.41727V25.9269H0.257258L0.257282 28.0953ZM0.257282 72.5736H-1.90273V74.7419H0.257282V72.5736ZM28.9915 72.5736V74.7419H31.1515V72.5736H28.9915ZM43.2658 72.5736H41.1058V74.7419H43.2658V72.5736ZM72 72.5736V74.7419H74.16V72.5736H72ZM72 28.0953H74.16V25.9269H72V28.0953ZM34.561 2.01285L70.4417 29.8118L73.0807 26.3787L37.2004 -1.42023L34.561 2.01285ZM1.31975 29.8118L37.2004 2.01285L34.561 -1.42023L-1.3197 26.3787L1.31975 29.8118ZM0.257258 25.9269H7.15256e-06L5.34058e-05 30.2636H0.257304L0.257258 25.9269ZM-1.90273 28.0953V72.5736H2.41727V28.0953H-1.90273ZM0.257282 74.7419H28.9915V70.4052H0.257282V74.7419ZM31.1515 72.5736V46.2793H26.8315V72.5736H31.1515ZM31.1515 46.2793C31.1515 43.5199 33.3798 41.283 36.1286 41.283V36.9463C30.9939 36.9463 26.8315 41.1248 26.8315 46.2793H31.1515ZM36.1286 41.283C38.8775 41.283 41.1058 43.5199 41.1058 46.2793H45.4258C45.4258 41.1248 41.2634 36.9463 36.1286 36.9463V41.283ZM41.1058 46.2793V72.5736H45.4258V46.2793H41.1058ZM43.2658 74.7419H72V70.4052H43.2658V74.7419ZM74.16 72.5736V28.0953H69.84V72.5736H74.16ZM72 25.9269H71.7613L71.7614 30.2636H72V25.9269Z" fill="white"/>
</mask>
<g mask="url(#mask1_8_288)">
<path d="M35.8807 0.296314L37.2004 -1.42023L35.8807 -2.44269L34.561 -1.42023L35.8807 0.296314ZM71.7613 28.0953L70.4417 29.8118L71.0248 30.2636H71.7614L71.7613 28.0953ZM3.00407e-05 28.0953L-1.3197 26.3787L-6.33405 30.2636H5.34058e-05L3.00407e-05 28.0953ZM0.257282 28.0953H2.41727V25.9269H0.257258L0.257282 28.0953ZM0.257282 72.5736H-1.90273V74.7419H0.257282V72.5736ZM28.9915 72.5736V74.7419H31.1515V72.5736H28.9915ZM43.2658 72.5736H41.1058V74.7419H43.2658V72.5736ZM72 72.5736V74.7419H74.16V72.5736H72ZM72 28.0953H74.16V25.9269H72V28.0953ZM34.561 2.01285L70.4417 29.8118L73.0807 26.3787L37.2004 -1.42023L34.561 2.01285ZM1.31975 29.8118L37.2004 2.01285L34.561 -1.42023L-1.3197 26.3787L1.31975 29.8118ZM0.257258 25.9269H7.15256e-06L5.34058e-05 30.2636H0.257304L0.257258 25.9269ZM-1.90273 28.0953V72.5736H2.41727V28.0953H-1.90273ZM0.257282 74.7419H28.9915V70.4052H0.257282V74.7419ZM31.1515 72.5736V46.2793H26.8315V72.5736H31.1515ZM31.1515 46.2793C31.1515 43.5199 33.3798 41.283 36.1286 41.283V36.9463C30.9939 36.9463 26.8315 41.1248 26.8315 46.2793H31.1515ZM36.1286 41.283C38.8775 41.283 41.1058 43.5199 41.1058 46.2793H45.4258C45.4258 41.1248 41.2634 36.9463 36.1286 36.9463V41.283ZM41.1058 46.2793V72.5736H45.4258V46.2793H41.1058ZM43.2658 74.7419H72V70.4052H43.2658V74.7419ZM74.16 72.5736V28.0953H69.84V72.5736H74.16ZM72 25.9269H71.7613L71.7614 30.2636H72V25.9269Z" fill="white"/>
<path d="M35.8807 0.29632L33.5024 2.12489L35.8808 5.21831L38.2591 2.12482L35.8807 0.29632ZM37.2004 -1.42022L39.5788 0.408282L41.4004 -1.96119L39.0378 -3.79172L37.2004 -1.42022ZM35.8807 -2.44268L37.7181 -4.81418L35.8808 -6.2377L34.0434 -4.81423L35.8807 -2.44268ZM34.561 -1.42022L32.7236 -3.79177L30.3608 -1.96121L32.1827 0.408347L34.561 -1.42022ZM71.7613 28.0953L74.7613 28.0952L74.7611 19.2715L69.383 26.2667L71.7613 28.0953ZM70.4417 29.8118L68.0633 27.9832L66.2416 30.3527L68.6042 32.1832L70.4417 29.8118ZM71.0248 30.2636L69.1874 32.6351L69.9986 33.2636H71.0248V30.2636ZM71.7614 30.2636V33.2636H74.7615L74.7614 30.2635L71.7614 30.2636ZM5.05447e-05 28.0953L3.00006 28.0952L3.00003 27.0753L2.37836 26.2667L5.05447e-05 28.0953ZM-1.31968 26.3787L1.05865 24.5502L-0.776697 22.163L-3.15703 24.0072L-1.31968 26.3787ZM-6.33403 30.2636L-8.17138 27.8921L-15.1047 33.2637L-6.33399 33.2636L-6.33403 30.2636ZM7.34329e-05 30.2636L0.000108719 33.2636L3.0001 33.2635L3.00007 30.2635L7.34329e-05 30.2636ZM0.257301 28.0953H-2.74269L-2.74267 31.0953H0.257301V28.0953ZM2.4173 28.0953V31.0953H5.4173V28.0953H2.4173ZM2.4173 25.9269H5.4173V22.9269H2.4173V25.9269ZM0.257277 25.9269V22.9269H-2.74275L-2.74273 25.927L0.257277 25.9269ZM0.257301 72.5736H3.25731V69.5736H0.257301V72.5736ZM-1.90271 72.5736V69.5736H-4.90271V72.5736H-1.90271ZM-1.90271 74.7419H-4.90271V77.7419H-1.90271V74.7419ZM0.257301 74.7419V77.7419H3.25731V74.7419H0.257301ZM28.9915 72.5736V69.5736H25.9915V72.5736H28.9915ZM28.9915 74.7419H25.9915V77.7419H28.9915V74.7419ZM31.1515 74.7419V77.7419H34.1515V74.7419H31.1515ZM31.1515 72.5736H34.1515V69.5736H31.1515V72.5736ZM43.2658 72.5736H46.2658V69.5736H43.2658V72.5736ZM41.1058 72.5736V69.5736H38.1058V72.5736H41.1058ZM41.1058 74.7419H38.1058V77.7419H41.1058V74.7419ZM43.2658 74.7419V77.7419H46.2658V74.7419H43.2658ZM72 72.5736V69.5736H69V72.5736H72ZM72 74.7419H69V77.7419H72V74.7419ZM74.16 74.7419V77.7419H77.16V74.7419H74.16ZM74.16 72.5736H77.16V69.5736H74.16V72.5736ZM72 28.0953H69V31.0953H72V28.0953ZM74.16 28.0953V31.0953H77.16V28.0953H74.16ZM74.16 25.9269H77.16V22.9268L74.1599 22.9269L74.16 25.9269ZM72 25.9269L71.9999 22.9269L69 22.927V25.9269H72ZM34.561 2.01286L32.1826 0.184326L30.3609 2.55384L32.7236 4.38438L34.561 2.01286ZM70.4417 29.8118L68.6043 32.1833L70.9848 34.0276L72.8201 31.6402L70.4417 29.8118ZM73.0807 26.3787L75.4592 28.2071L77.2807 25.8377L74.9181 24.0072L73.0807 26.3787ZM37.2004 -1.42022L39.0378 -3.79173L36.6574 -5.63595L34.8221 -3.24875L37.2004 -1.42022ZM1.31977 29.8118L-1.05855 31.6403L0.7768 34.0275L3.15714 32.1833L1.31977 29.8118ZM37.2004 2.01286L39.0378 4.38438L41.4005 2.55384L39.5787 0.184326L37.2004 2.01286ZM34.561 -1.42022L36.9393 -3.24875L35.104 -5.63594L32.7236 -3.79173L34.561 -1.42022ZM-1.31968 26.3787L-3.15703 24.0072L-5.51978 25.8378L-3.698 28.2073L-1.31968 26.3787ZM0.257277 25.9269H3.25727L3.25724 22.9269H0.257277V25.9269ZM2.67029e-05 25.9269V22.9269H-3.00001L-2.99998 25.927L2.67029e-05 25.9269ZM7.34329e-05 30.2636H-2.99993L-2.9999 33.2636H7.34329e-05V30.2636ZM0.257324 30.2636V33.2636H3.25735L3.25732 30.2635L0.257324 30.2636ZM-1.90271 28.0953V25.0953H-4.90271V28.0953H-1.90271ZM-1.90271 72.5736H-4.90271V75.5736H-1.90271V72.5736ZM2.4173 72.5736V75.5736H5.4173V72.5736H2.4173ZM2.4173 28.0953H5.4173V25.0953H2.4173V28.0953ZM0.257301 74.7419H-2.74269V77.7419H0.257301V74.7419ZM28.9915 74.7419V77.7419H31.9915V74.7419H28.9915ZM28.9915 70.4052H31.9915V67.4052H28.9915V70.4052ZM0.257301 70.4052V67.4052H-2.74269V70.4052H0.257301ZM31.1515 72.5736V75.5736H34.1515V72.5736H31.1515ZM31.1515 46.2793H34.1515V43.2793H31.1515V46.2793ZM26.8315 46.2793V43.2793H23.8315V46.2793H26.8315ZM26.8315 72.5736H23.8315V75.5736H26.8315V72.5736ZM31.1515 46.2793V49.2793H34.1515V46.2793H31.1515ZM36.1286 41.283V44.283H39.1286V41.283H36.1286ZM36.1286 36.9463H39.1286V33.9463H36.1286V36.9463ZM26.8315 46.2793H23.8315V49.2793H26.8315V46.2793ZM36.1286 41.283H33.1286V44.283H36.1286V41.283ZM41.1058 46.2793H38.1058V49.2793H41.1058V46.2793ZM45.4258 46.2793V49.2793H48.4258V46.2793H45.4258ZM36.1286 36.9463V33.9463H33.1286V36.9463H36.1286ZM41.1058 46.2793V43.2793H38.1058V46.2793H41.1058ZM41.1058 72.5736H38.1058V75.5736H41.1058V72.5736ZM45.4258 72.5736V75.5736H48.4258V72.5736H45.4258ZM45.4258 46.2793H48.4258V43.2793H45.4258V46.2793ZM43.2658 74.7419H40.2658V77.7419H43.2658V74.7419ZM72 74.7419V77.7419H75V74.7419H72ZM72 70.4052H75V67.4052H72V70.4052ZM43.2658 70.4052V67.4052H40.2658V70.4052H43.2658ZM74.16 72.5736V75.5736H77.16V72.5736H74.16ZM74.16 28.0953H77.16V25.0953H74.16V28.0953ZM69.84 28.0953V25.0953H66.84V28.0953H69.84ZM69.84 72.5736H66.84V75.5736H69.84V72.5736ZM72 25.9269H75V22.9269H72V25.9269ZM71.7613 25.9269V22.9269H68.7613V25.927L71.7613 25.9269ZM71.7614 30.2636H68.7614L68.7615 33.2636H71.7614V30.2636ZM72 30.2636V33.2636H75V30.2636H72ZM38.2591 2.12482L39.5788 0.408282L34.8221 -3.24871L33.5024 -1.53218L38.2591 2.12482ZM39.0378 -3.79172L37.7181 -4.81418L34.0433 -0.0711784L35.363 0.951284L39.0378 -3.79172ZM34.0434 -4.81423L32.7236 -3.79177L36.3983 0.951334L37.718 -0.0711284L34.0434 -4.81423ZM32.1827 0.408347L33.5024 2.12489L38.259 -1.53224L36.9393 -3.24878L32.1827 0.408347ZM69.383 26.2667L68.0633 27.9832L72.82 31.6403L74.1397 29.9238L69.383 26.2667ZM68.6042 32.1832L69.1874 32.6351L72.8622 27.8921L72.2791 27.4403L68.6042 32.1832ZM71.0248 33.2636H71.7614V27.2636H71.0248V33.2636ZM74.7614 30.2635L74.7613 28.0952L68.7613 28.0954L68.7614 30.2637L74.7614 30.2635ZM2.37836 26.2667L1.05865 24.5502L-3.698 28.2073L-2.37827 29.9238L2.37836 26.2667ZM-3.15703 24.0072L-8.17138 27.8921L-4.49667 32.6352L0.517681 28.7503L-3.15703 24.0072ZM-6.33399 33.2636H0.000108719L3.8147e-05 27.2636H-6.33405L-6.33399 33.2636ZM3.00007 30.2635L3.00006 28.0952L-2.99994 28.0953L-2.99993 30.2636L3.00007 30.2635ZM0.257301 31.0953H2.4173V25.0953H0.257301V31.0953ZM5.4173 28.0953V25.9269H-0.5827V28.0953H5.4173ZM2.4173 22.9269H0.257277V28.9269H2.4173V22.9269ZM-2.74273 25.927L-2.74269 28.0953L3.25731 28.0952L3.25727 25.9269L-2.74273 25.927ZM0.257301 69.5736H-1.90271V75.5736H0.257301V69.5736ZM-4.90271 72.5736V74.7419H1.09729V72.5736H-4.90271ZM-1.90271 77.7419H0.257301V71.7419H-1.90271V77.7419ZM3.25731 74.7419V72.5736H-2.74269V74.7419H3.25731ZM25.9915 72.5736V74.7419H31.9915V72.5736H25.9915ZM28.9915 77.7419H31.1515V71.7419H28.9915V77.7419ZM34.1515 74.7419V72.5736H28.1515V74.7419H34.1515ZM31.1515 69.5736H28.9915V75.5736H31.1515V69.5736ZM43.2658 69.5736H41.1058V75.5736H43.2658V69.5736ZM38.1058 72.5736V74.7419H44.1058V72.5736H38.1058ZM41.1058 77.7419H43.2658V71.7419H41.1058V77.7419ZM46.2658 74.7419V72.5736H40.2658V74.7419H46.2658ZM69 72.5736V74.7419H75V72.5736H69ZM72 77.7419H74.16V71.7419H72V77.7419ZM77.16 74.7419V72.5736H71.16V74.7419H77.16ZM74.16 69.5736H72V75.5736H74.16V69.5736ZM72 31.0953H74.16V25.0953H72V31.0953ZM77.16 28.0953V25.9269H71.16V28.0953H77.16ZM74.1599 22.9269H71.9999L72.0001 28.9269H74.1601L74.1599 22.9269ZM69 25.9269V28.0953H75V25.9269H69ZM32.7236 4.38438L68.6043 32.1833L72.279 27.4402L36.3983 -0.358664L32.7236 4.38438ZM72.8201 31.6402L75.4592 28.2071L70.7023 24.5504L68.0632 27.9834L72.8201 31.6402ZM74.9181 24.0072L39.0378 -3.79173L35.363 0.951293L71.2434 28.7503L74.9181 24.0072ZM34.8221 -3.24875L32.1826 0.184326L36.9393 3.84139L39.5787 0.408315L34.8221 -3.24875ZM3.15714 32.1833L39.0378 4.38438L35.3631 -0.358664L-0.517586 27.4402L3.15714 32.1833ZM39.5787 0.184326L36.9393 -3.24875L32.1826 0.408315L34.8221 3.84139L39.5787 0.184326ZM32.7236 -3.79173L-3.15703 24.0072L0.517689 28.7503L36.3983 0.951302L32.7236 -3.79173ZM-3.698 28.2073L-1.05855 31.6403L3.6981 27.9832L1.05865 24.5502L-3.698 28.2073ZM0.257277 22.9269H2.67029e-05V28.9269H0.257277V22.9269ZM-2.99998 25.927L-2.99993 30.2636L3.00007 30.2635L3.00002 25.9269L-2.99998 25.927ZM7.34329e-05 33.2636H0.257324V27.2636H7.34329e-05V33.2636ZM3.25732 30.2635L3.25727 25.9269L-2.74273 25.927L-2.74268 30.2636L3.25732 30.2635ZM-4.90271 28.0953V72.5736H1.09729V28.0953H-4.90271ZM-1.90271 75.5736H2.4173V69.5736H-1.90271V75.5736ZM5.4173 72.5736V28.0953H-0.5827V72.5736H5.4173ZM2.4173 25.0953H-1.90271V31.0953H2.4173V25.0953ZM0.257301 77.7419H28.9915V71.7419H0.257301V77.7419ZM31.9915 74.7419V70.4052H25.9915V74.7419H31.9915ZM28.9915 67.4052H0.257301V73.4052H28.9915V67.4052ZM-2.74269 70.4052V74.7419H3.25731V70.4052H-2.74269ZM34.1515 72.5736V46.2793H28.1515V72.5736H34.1515ZM31.1515 43.2793H26.8315V49.2793H31.1515V43.2793ZM23.8315 46.2793V72.5736H29.8315V46.2793H23.8315ZM26.8315 75.5736H31.1515V69.5736H26.8315V75.5736ZM34.1515 46.2793C34.1515 45.1658 35.0475 44.283 36.1286 44.283V38.283C31.7121 38.283 28.1515 41.8739 28.1515 46.2793H34.1515ZM39.1286 41.283V36.9463H33.1286V41.283H39.1286ZM36.1286 33.9463C29.3262 33.9463 23.8315 39.4789 23.8315 46.2793H29.8315C29.8315 42.7708 32.6617 39.9463 36.1286 39.9463V33.9463ZM26.8315 49.2793H31.1515V43.2793H26.8315V49.2793ZM36.1286 44.283C37.2098 44.283 38.1058 45.1659 38.1058 46.2793H44.1058C44.1058 41.874 40.5452 38.283 36.1286 38.283V44.283ZM41.1058 49.2793H45.4258V43.2793H41.1058V49.2793ZM48.4258 46.2793C48.4258 39.4788 42.9311 33.9463 36.1286 33.9463V39.9463C39.5957 39.9463 42.4258 42.7708 42.4258 46.2793H48.4258ZM33.1286 36.9463V41.283H39.1286V36.9463H33.1286ZM38.1058 46.2793V72.5736H44.1058V46.2793H38.1058ZM41.1058 75.5736H45.4258V69.5736H41.1058V75.5736ZM48.4258 72.5736V46.2793H42.4258V72.5736H48.4258ZM45.4258 43.2793H41.1058V49.2793H45.4258V43.2793ZM43.2658 77.7419H72V71.7419H43.2658V77.7419ZM75 74.7419V70.4052H69V74.7419H75ZM72 67.4052H43.2658V73.4052H72V67.4052ZM40.2658 70.4052V74.7419H46.2658V70.4052H40.2658ZM77.16 72.5736V28.0953H71.16V72.5736H77.16ZM74.16 25.0953H69.84V31.0953H74.16V25.0953ZM66.84 28.0953V72.5736H72.84V28.0953H66.84ZM69.84 75.5736H74.16V69.5736H69.84V75.5736ZM72 22.9269H71.7613V28.9269H72V22.9269ZM68.7613 25.927L68.7614 30.2636L74.7614 30.2635L74.7613 25.9269L68.7613 25.927ZM71.7614 33.2636H72V27.2636H71.7614V33.2636ZM75 30.2636V25.9269H69V30.2636H75Z" fill="black"/>
</g>
</g>
</svg>
