<svg width="78" height="78" viewBox="0 0 78 78" fill="none" xmlns="http://www.w3.org/2000/svg">
<mask id="mask0_8_298" style="mask-type:alpha" maskUnits="userSpaceOnUse" x="0" y="0" width="78" height="78">
<path fill-rule="evenodd" clip-rule="evenodd" d="M77.7414 30.0196L38.8707 0.316589L0 30.0196H0.278689V77.5444H31.4074V49.4491C31.4074 45.2212 34.8691 41.7937 39.1393 41.7937C43.4096 41.7937 46.8713 45.2212 46.8713 49.4491V77.5444H78V30.0196H77.7414Z" fill="white"/>
</mask>
<g mask="url(#mask0_8_298)">
<path fill-rule="evenodd" clip-rule="evenodd" d="M77.7414 30.0196L38.8707 0.316589L0 30.0196H0.278689V77.5444H31.4074V49.4491C31.4074 45.2212 34.8691 41.7937 39.1393 41.7937C43.4096 41.7937 46.8713 45.2212 46.8713 49.4491V77.5444H78V30.0196H77.7414Z" fill="#030303"/>
<path d="M38.8707 0.316591L40.3004 -1.51752L38.8707 -2.61002L37.441 -1.51752L38.8707 0.316591ZM77.7414 30.0196L76.3117 31.8537L76.9435 32.3364H77.7415L77.7414 30.0196ZM-2.71797e-05 30.0196L-1.42973 28.1855L-6.86194 32.3365L-1.90735e-06 32.3364L-2.71797e-05 30.0196ZM0.278661 30.0196H2.61866V27.7027H0.278636L0.278661 30.0196ZM0.278661 77.5444H-2.06134V79.8612H0.278661V77.5444ZM31.4074 77.5444V79.8612H33.7474V77.5444H31.4074ZM46.8713 77.5444H44.5313V79.8612H46.8713V77.5444ZM78 77.5444V79.8612H80.34V77.5444H78ZM78 30.0196H80.34V27.7027H78V30.0196ZM37.441 2.15069L76.3117 31.8537L79.1707 28.1855L40.3004 -1.51752L37.441 2.15069ZM1.42967 31.8537L40.3004 2.15069L37.441 -1.51752L-1.42973 28.1855L1.42967 31.8537ZM0.278636 27.7027H-5.29289e-05L-1.90735e-06 32.3364H0.278686L0.278636 27.7027ZM-2.06134 30.0196V77.5444H2.61866V30.0196H-2.06134ZM0.278661 79.8612H31.4074V75.2274H0.278661V79.8612ZM33.7474 77.5444V49.4491H29.0674V77.5444H33.7474ZM33.7474 49.4491C33.7474 46.5007 36.1614 44.1105 39.1393 44.1105V39.4769C33.5767 39.4769 29.0674 43.9416 29.0674 49.4491H33.7474ZM39.1393 44.1105C42.1172 44.1105 44.5313 46.5007 44.5313 49.4491H49.2113C49.2113 43.9416 44.7019 39.4769 39.1393 39.4769V44.1105ZM44.5313 49.4491V77.5444H49.2113V49.4491H44.5313ZM46.8713 79.8612H78V75.2274H46.8713V79.8612ZM80.34 77.5444V30.0196H75.66V77.5444H80.34ZM78 27.7027H77.7414L77.7415 32.3364H78V27.7027Z" fill="black"/>
</g>
</svg>
