<svg width="62" height="62" viewBox="0 0 62 62" fill="none" xmlns="http://www.w3.org/2000/svg">
<g clip-path="url(#clip0_12_47)">
<path d="M21.6651 24.8976L13 41L25.2001 32.0079L40.3129 37.1055L49 21L39.3277 29.9934L21.6651 24.8976Z" fill="black" stroke="#090909"/>
<path d="M7.96303 48.225L8.95328 47.4834L9.31359 47.9646L9.15802 48.5452L7.96303 48.225ZM5.83576 56.1642L6.15592 57.3592L4.08617 57.9138L4.64077 55.8441L5.83576 56.1642ZM13.775 54.037L13.4548 52.842L14.0354 52.6864L14.5166 53.0467L13.775 54.037ZM6.97285 48.9666C3.2221 43.9584 1 37.7369 1 31H3.47423C3.47423 37.184 5.51207 42.8885 8.95328 47.4834L6.97285 48.9666ZM4.64077 55.8441L6.76811 47.9048L9.15802 48.5452L7.03068 56.4845L4.64077 55.8441ZM14.0952 55.2319L6.15592 57.3592L5.51553 54.9693L13.4548 52.842L14.0952 55.2319ZM31 61C24.2631 61 18.0417 58.7779 13.0334 55.0272L14.5166 53.0467C19.1115 56.4879 24.816 58.5258 31 58.5258V61ZM61 31C61 47.5685 47.5685 61 31 61V58.5258C46.2021 58.5258 58.5258 46.2021 58.5258 31H61ZM31 1C47.5685 1 61 14.4315 61 31H58.5258C58.5258 15.7979 46.2021 3.47423 31 3.47423V1ZM1 31C1 14.4315 14.4315 1 31 1V3.47423C15.7979 3.47423 3.47423 15.7979 3.47423 31H1Z" fill="black" stroke="black" stroke-width="2"/>
</g>
<defs>
<clipPath id="clip0_12_47">
<rect width="62" height="62" fill="white"/>
</clipPath>
</defs>
</svg>
