<svg width="134" height="133" viewBox="0 0 134 133" fill="none" xmlns="http://www.w3.org/2000/svg">
<path d="M66.2085 24C72.8359 24 78.2085 18.6274 78.2085 12C78.2085 5.37258 72.8359 0 66.2085 0C59.5811 0 54.2085 5.37258 54.2085 12C54.2085 18.6274 59.5811 24 66.2085 24Z" fill="#EE3A3A"/>
<path d="M66.2085 133C72.8359 133 78.2085 127.627 78.2085 121C78.2085 114.373 72.8359 109 66.2085 109C59.5811 109 54.2085 114.373 54.2085 121C54.2085 127.627 59.5811 133 66.2085 133Z" fill="#D9D9D9"/>
<path d="M42.8041 31.7767C48.233 27.9754 49.5523 20.4928 45.751 15.064C41.9497 9.63512 34.4671 8.31574 29.0383 12.1171C23.6094 15.9184 22.29 23.401 26.0914 28.8298C29.8927 34.2587 37.3752 35.5781 42.8041 31.7767Z" fill="#D9D9D9"/>
<path d="M105.324 121.064C110.753 117.262 112.072 109.78 108.271 104.351C104.469 98.9222 96.987 97.6028 91.5581 101.404C86.1292 105.206 84.8099 112.688 88.6112 118.117C92.4125 123.546 99.8951 124.865 105.324 121.064Z" fill="#D9D9D9"/>
<path d="M26.8654 51.9321C29.1321 45.7044 25.9211 38.8183 19.6934 36.5516C13.4656 34.2849 6.57951 37.4959 4.3128 43.7237C2.04609 49.9514 5.25714 56.8375 11.4849 59.1042C17.7126 61.3709 24.5987 58.1599 26.8654 51.9321Z" fill="#D9D9D9"/>
<path d="M129.292 89.2122C131.559 82.9845 128.348 76.0984 122.12 73.8317C115.892 71.565 109.006 74.776 106.74 81.0038C104.473 87.2315 107.684 94.1176 113.912 96.3843C120.139 98.651 127.026 95.44 129.292 89.2122Z" fill="#D9D9D9"/>
<path d="M26.6569 80.5148C24.3902 74.287 17.5041 71.076 11.2764 73.3427C5.04865 75.6094 1.83761 82.4955 4.10432 88.7232C6.37103 94.951 13.2571 98.162 19.4849 95.8953C25.7126 93.6286 28.9236 86.7425 26.6569 80.5148Z" fill="#D9D9D9"/>
<path d="M129.083 43.2351C126.817 37.0073 119.931 33.7963 113.703 36.063C107.475 38.3297 104.264 45.2158 106.531 51.4435C108.797 57.6713 115.684 60.8823 121.911 58.6156C128.139 56.3489 131.35 49.4628 129.083 43.2351Z" fill="#D9D9D9"/>
<path d="M43.1445 101.457C37.7156 97.6558 30.2331 98.9752 26.4318 104.404C22.6304 109.833 23.9498 117.315 29.3787 121.117C34.8075 124.918 42.2901 123.599 46.0914 118.17C49.8927 112.741 48.5734 105.259 43.1445 101.457Z" fill="#D9D9D9"/>
<path d="M105.664 12.1699C100.235 8.36855 92.7525 9.68792 88.9512 15.1168C85.1498 20.5456 86.4692 28.0282 91.8981 31.8295C97.3269 35.6309 104.809 34.3115 108.611 28.8826C112.412 23.4538 111.093 15.9712 105.664 12.1699Z" fill="#D9D9D9"/>
</svg>
