<svg width="80" height="80" viewBox="0 0 80 80" fill="none" xmlns="http://www.w3.org/2000/svg">
<mask id="mask0_3_37" style="mask-type:alpha" maskUnits="userSpaceOnUse" x="0" y="0" width="80" height="80">
<path fill-rule="evenodd" clip-rule="evenodd" d="M71.0605 44.3599L39.8334 79.1356L8.6062 44.3599L6.46736 41.978C-2.15579 32.375 -2.15579 16.8053 6.46736 7.20228C15.0906 -2.40076 29.0714 -2.40076 37.6946 7.20228L39.8334 9.58419L41.9723 7.20228C50.5954 -2.40076 64.5763 -2.40075 73.1995 7.20228C81.8228 16.8053 81.8228 32.375 73.1995 41.978L71.0605 44.3599Z" fill="white"/>
</mask>
<g mask="url(#mask0_3_37)">
<path d="M70.0773 43.3747L71.1359 44.3298L70.0773 43.3747L39.8333 76.8964L9.58927 43.3747L7.44148 40.9941C-0.702659 31.9674 -0.702662 17.2745 7.44147 8.24771C15.505 -0.689667 28.5083 -0.689668 36.5718 8.24771L38.7196 10.6283L39.8333 11.8627L40.947 10.6283L43.0948 8.2477C51.1583 -0.689661 64.1616 -0.689663 72.2252 8.24771C80.3695 17.2745 80.3695 31.9674 72.2252 40.9941L70.0773 43.3747Z" fill="white"/>
<path d="M70.0773 43.3747L71.1359 44.3298L70.0773 43.3747ZM70.0773 43.3747L39.8333 76.8964L9.58927 43.3747L7.44148 40.9941C-0.702659 31.9674 -0.702662 17.2745 7.44147 8.24771C15.505 -0.689667 28.5083 -0.689668 36.5718 8.24771L38.7196 10.6283L39.8333 11.8627L40.947 10.6283L43.0948 8.2477C51.1583 -0.689661 64.1616 -0.689663 72.2252 8.24771C80.3695 17.2745 80.3695 31.9674 72.2252 40.9941L70.0773 43.3747Z" stroke="black" stroke-width="3"/>
<path d="M39.8334 79.1356L38.6789 80.4212L39.8334 81.7069L40.9878 80.4212L39.8334 79.1356ZM71.0605 44.3599L69.906 43.0742L71.0605 44.3599ZM8.60616 44.3599L9.76069 43.0742H9.76062L8.60616 44.3599ZM6.46732 41.978L5.31286 43.2636V43.2637L6.46732 41.978ZM6.46732 7.20229L7.62177 8.48796L6.46732 7.20229ZM37.6945 7.20229L36.5401 8.48796L37.6945 7.20229ZM39.8334 9.58419L38.6789 10.8699L39.8334 12.1555L40.9878 10.8699L39.8334 9.58419ZM41.9722 7.20229L40.8178 5.91663L41.9722 7.20229ZM73.1994 41.978L74.3539 43.2637V43.2636L73.1994 41.978ZM40.9878 80.4212L72.215 45.6455L69.906 43.0742L38.6789 77.85L40.9878 80.4212ZM7.45173 45.6455L38.6789 80.4212L40.9878 77.85L9.76069 43.0742L7.45173 45.6455ZM5.31286 43.2637L7.45175 45.6455L9.76062 43.0742L7.62177 40.6923L5.31286 43.2637ZM5.31286 5.91664C-3.94788 16.2297 -3.94788 32.9506 5.31286 43.2636L7.62177 40.6923C-0.363771 31.7993 -0.363771 17.381 7.62177 8.48796L5.31286 5.91664ZM38.849 5.91664C29.5882 -4.39645 14.5736 -4.39645 5.31286 5.91664L7.62177 8.48796C15.6073 -0.405062 28.5545 -0.405062 36.5401 8.48796L38.849 5.91664ZM40.9878 8.2986L38.849 5.91663L36.5401 8.48796L38.6789 10.8699L40.9878 8.2986ZM40.8178 5.91663L38.6789 8.2986L40.9878 10.8699L43.1267 8.48796L40.8178 5.91663ZM74.3539 5.91664C65.0931 -4.39644 50.0785 -4.39645 40.8178 5.91663L43.1267 8.48796C51.1122 -0.405061 64.0594 -0.405057 72.045 8.48796L74.3539 5.91664ZM74.3539 43.2636C83.6146 32.9506 83.6146 16.2297 74.3539 5.91664L72.045 8.48796C80.0305 17.381 80.0305 31.7993 72.045 40.6923L74.3539 43.2636ZM72.2149 45.6455L74.3539 43.2637L72.045 40.6923L69.906 43.0742L72.2149 45.6455Z" fill="black"/>
</g>
</svg>
